<?xml version="1.0" encoding="UTF-8" standalone="no"?>
<!-- Created with Inkscape (http://www.inkscape.org/) -->

<svg
   width="64pt"
   height="64pt"
   viewBox="0 0 22.577778 22.577778"
   version="1.1"
   id="svg831"
   inkscape:version="1.1.1 (3bf5ae0d25, 2021-09-20)"
   sodipodi:docname="#1.svg"
   inkscape:export-filename="C:\Users\User\Desktop\Done Januari II\E\18 - Cutting Board.png"
   inkscape:export-xdpi="576"
   inkscape:export-ydpi="576"
   xmlns:inkscape="http://www.inkscape.org/namespaces/inkscape"
   xmlns:sodipodi="http://sodipodi.sourceforge.net/DTD/sodipodi-0.dtd"
   xmlns="http://www.w3.org/2000/svg"
   xmlns:svg="http://www.w3.org/2000/svg"
   xmlns:rdf="http://www.w3.org/1999/02/22-rdf-syntax-ns#"
   xmlns:cc="http://creativecommons.org/ns#"
   xmlns:dc="http://purl.org/dc/elements/1.1/">
  <defs
     id="defs825">
    <pattern
       id="EMFhbasepattern"
       patternUnits="userSpaceOnUse"
       width="6"
       height="6"
       x="0"
       y="0" />
    <pattern
       id="EMFhbasepattern-9"
       patternUnits="userSpaceOnUse"
       width="6"
       height="6"
       x="0"
       y="0" />
    <pattern
       id="EMFhbasepattern-0"
       patternUnits="userSpaceOnUse"
       width="6"
       height="6"
       x="0"
       y="0" />
    <pattern
       id="EMFhbasepattern-7"
       patternUnits="userSpaceOnUse"
       width="6"
       height="6"
       x="0"
       y="0" />
    <pattern
       id="EMFhbasepattern-2"
       patternUnits="userSpaceOnUse"
       width="6"
       height="6"
       x="0"
       y="0" />
    <pattern
       id="EMFhbasepattern-98"
       patternUnits="userSpaceOnUse"
       width="6"
       height="6"
       x="0"
       y="0" />
    <pattern
       id="EMFhbasepattern-6"
       patternUnits="userSpaceOnUse"
       width="6"
       height="6"
       x="0"
       y="0" />
    <pattern
       id="EMFhbasepattern-01"
       patternUnits="userSpaceOnUse"
       width="6"
       height="6"
       x="0"
       y="0" />
    <pattern
       id="EMFhbasepattern-07"
       patternUnits="userSpaceOnUse"
       width="6"
       height="6"
       x="0"
       y="0" />
    <pattern
       id="EMFhbasepattern-8"
       patternUnits="userSpaceOnUse"
       width="6"
       height="6"
       x="0"
       y="0" />
    <pattern
       id="EMFhbasepattern-4"
       patternUnits="userSpaceOnUse"
       width="6"
       height="6"
       x="0"
       y="0" />
    <pattern
       id="EMFhbasepattern-40"
       patternUnits="userSpaceOnUse"
       width="6"
       height="6"
       x="0"
       y="0" />
    <pattern
       id="EMFhbasepattern-08"
       patternUnits="userSpaceOnUse"
       width="6"
       height="6"
       x="0"
       y="0" />
    <pattern
       id="EMFhbasepattern-04"
       patternUnits="userSpaceOnUse"
       width="6"
       height="6"
       x="0"
       y="0" />
    <pattern
       id="EMFhbasepattern-014"
       patternUnits="userSpaceOnUse"
       width="6"
       height="6"
       x="0"
       y="0" />
    <pattern
       id="EMFhbasepattern-27"
       patternUnits="userSpaceOnUse"
       width="6"
       height="6"
       x="0"
       y="0" />
    <pattern
       id="EMFhbasepattern-09"
       patternUnits="userSpaceOnUse"
       width="6"
       height="6"
       x="0"
       y="0" />
    <pattern
       id="EMFhbasepattern-5"
       patternUnits="userSpaceOnUse"
       width="6"
       height="6"
       x="0"
       y="0" />
    <pattern
       id="EMFhbasepattern-018"
       patternUnits="userSpaceOnUse"
       width="6"
       height="6"
       x="0"
       y="0" />
  </defs>
  <sodipodi:namedview
     id="base"
     pagecolor="#ffffff"
     bordercolor="#666666"
     borderopacity="1.0"
     inkscape:pageopacity="0.0"
     inkscape:pageshadow="2"
     inkscape:zoom="6.4882571"
     inkscape:cx="42.61545"
     inkscape:cy="42.61545"
     inkscape:document-units="pt"
     inkscape:current-layer="layer1"
     showgrid="false"
     units="pt"
     inkscape:window-width="1920"
     inkscape:window-height="1001"
     inkscape:window-x="-9"
     inkscape:window-y="41"
     inkscape:window-maximized="1"
     inkscape:pagecheckerboard="true"
     inkscape:showpageshadow="false"
     inkscape:object-paths="true"
     inkscape:snap-intersection-paths="true"
     inkscape:snap-smooth-nodes="true"
     inkscape:snap-midpoints="true"
     showguides="true"
     inkscape:snap-bbox="true"
     inkscape:bbox-nodes="true"
     inkscape:snap-nodes="false"
     inkscape:snap-global="true">
    <inkscape:grid
       type="xygrid"
       id="grid1378" />
    <sodipodi:guide
       position="0.97013831,21.607643"
       orientation="78.000048,0"
       id="guide1380"
       inkscape:locked="false" />
    <sodipodi:guide
       position="0.97013831,0.97013129"
       orientation="0,78.000005"
       id="guide1382"
       inkscape:locked="false" />
    <sodipodi:guide
       position="21.607639,0.97013129"
       orientation="-78.000048,0"
       id="guide1384"
       inkscape:locked="false" />
    <sodipodi:guide
       position="21.607639,21.607643"
       orientation="0,-78.000005"
       id="guide1386"
       inkscape:locked="false" />
  </sodipodi:namedview>
  <metadata
     id="metadata828">
    <rdf:RDF>
      <cc:Work
         rdf:about="">
        <dc:format>image/svg+xml</dc:format>
        <dc:type
           rdf:resource="http://purl.org/dc/dcmitype/StillImage" />
      </cc:Work>
    </rdf:RDF>
  </metadata>
  <g
     inkscape:label="Icon"
     inkscape:groupmode="layer"
     id="layer1"
     transform="translate(0,-274.42223)">
    <g
       id="g14071"
       style="display:inline;stroke-width:0.745198"
       transform="matrix(1.3419254,0,0,1.3419254,-41.010703,-101.479)">
      <path
         style="color:#000000;fill:#9a605c;stroke-width:0.745198;stroke-linecap:round;stroke-linejoin:round;-inkscape-stroke:none"
         d="m 32.619141,287.22656 a 0.26460996,0.26460996 0 0 0 -0.263672,0.26563 v 7.4082 a 0.26460996,0.26460996 0 0 0 0.263672,0.26367 h 12.964843 a 0.26460996,0.26460996 0 0 0 0.265625,-0.26367 v -7.4082 a 0.26460996,0.26460996 0 0 0 -0.265625,-0.26563 z"
         id="path1915" />
      <path
         id="path17819"
         style="fill:#804f4d;fill-opacity:1;stroke-width:2.8165;stroke-linecap:round;stroke-linejoin:round"
         d="m 123.28516,27.060547 a 1.0001006,1.0001006 0 0 0 -0.9961,1.003906 v 4.605469 c 0.32528,0.0495 0.6579,0.07617 0.9961,0.07617 1.54439,0 2.86317,-0.668175 4,-1.558594 1.137,0.890872 2.45749,1.558594 4.00195,1.558594 1.54446,0 2.863,-0.667722 4,-1.558594 1.13682,0.890419 2.45756,1.558594 4.00195,1.558594 1.54172,0 2.86069,-0.663462 3.99414,-1.550782 1.1363,0.888945 2.45718,1.550782 4,1.550782 1.54441,0 2.86514,-0.668213 4.00196,-1.558594 1.137,0.890872 2.45553,1.558594 4,1.558594 1.54171,0 2.86567,-0.66229 4.00195,-1.550782 1.13637,0.888643 2.45836,1.550782 4,1.550782 1.54446,0 2.86495,-0.667722 4.00195,-1.558594 1.13682,0.890419 2.45562,1.558594 4,1.558594 0.6952,0 1.36768,-0.109676 2,-0.310547 v -4.371094 a 1.0001006,1.0001006 0 0 0 -1.0039,-1.003906 z"
         transform="matrix(0.26458334,0,0,0.26458334,0,280.06666)" />
      <path
         style="color:#000000;fill:#a7e3fa;stroke-width:0.745198;stroke-linecap:round;stroke-linejoin:round;-inkscape-stroke:none"
         d="m 34.208984,288.78516 c -0.435369,-0.002 -0.794929,0.35564 -0.794922,0.79101 v 4.26563 a 0.26460996,0.26460996 0 0 0 0.263672,0.26367 h 6.34961 a 0.26460996,0.26460996 0 0 0 0.265625,-0.26367 v -4.23438 c 0,-0.43528 -0.358237,-0.7939 -0.792969,-0.79687 z"
         id="path2111" />
      <path
         id="path22762"
         style="color:#000000;fill:#89d0e5;fill-opacity:1;stroke-width:0.745198;stroke-linecap:round;stroke-linejoin:round;-inkscape-stroke:none"
         d="m 34.208766,288.78499 c -0.356205,-0.002 -0.661374,0.23782 -0.760677,0.56327 0.07351,-0.0224 0.151025,-0.0345 0.23151,-0.0341 l 5.291151,0.0253 c 0.434732,0.003 0.793232,0.36209 0.793232,0.79737 v 3.96875 h 0.263551 a 0.26460996,0.26460996 0 0 0 0.265615,-0.26355 v -4.23489 c 0,-0.43528 -0.3585,-0.79388 -0.793231,-0.79685 z" />
      <path
         style="color:#000000;fill:#d0ad9b;stroke-width:0.745198;stroke-linecap:round;stroke-linejoin:round;-inkscape-stroke:none"
         d="m 42.9375,288.81445 c -1.007827,0 -1.851564,0.75907 -1.851563,1.71875 v 4.36719 a 0.26460996,0.26460996 0 0 0 0.265625,0.26367 h 3.173829 a 0.26460996,0.26460996 0 0 0 0.265625,-0.26367 v -4.38281 c 2e-6,-0.94668 -0.845688,-1.70313 -1.853516,-1.70313 z"
         id="path1531" />
      <path
         id="path26197"
         style="color:#000000;fill:#b29684;fill-opacity:1;stroke-width:2.8165;stroke-linecap:round;stroke-linejoin:round;-inkscape-stroke:none"
         d="m 162.2832,33.0625 c -2.53159,0 -4.78797,1.266797 -6.01758,3.181641 1.14376,-0.745912 2.53378,-1.181641 4.01758,-1.181641 3.80912,0 7.00587,2.859497 7.00586,6.4375 v 15.560547 h 0.9961 a 1.0001006,1.0001006 0 0 0 1.0039,-0.996094 V 39.5 c 1e-5,-3.578003 -3.19674,-6.4375 -7.00586,-6.4375 z"
         transform="matrix(0.26458334,0,0,0.26458334,0,280.06666)" />
      <path
         style="color:#000000;fill:#f9f9f9;stroke-width:0.745198;stroke-linecap:round;stroke-linejoin:round;-inkscape-stroke:none"
         d="m 37.710937,290.56052 c -0.142315,0.0325 -0.231459,0.17404 -0.199218,0.3164 0.03246,0.14232 0.17404,0.23146 0.316406,0.19922 0.285877,-0.10638 0.627534,-0.11947 0.771484,0.0313 0.220775,0.29066 0.04114,0.80035 -0.244141,0.96289 -0.15253,0.0806 -0.39407,0.0724 -0.699219,-0.0996 -0.127322,-0.0709 -0.287995,-0.0255 -0.359375,0.10157 -0.07121,0.12681 -0.02672,0.28731 0.09961,0.35937 0.406574,0.22923 0.847148,0.29755 1.207032,0.10742 0.673172,-0.40389 0.800378,-1.17756 0.425781,-1.73851 -0.312449,-0.38912 -0.829627,-0.35089 -1.31836,-0.24006 z"
         id="path7490"
         sodipodi:nodetypes="ccccccccccc" />
      <path
         style="color:#000000;fill:#ffefeb;stroke-width:0.745198;stroke-linecap:round;stroke-linejoin:round;-inkscape-stroke:none"
         d="m 42.673828,289.87305 c -0.289131,0 -0.529305,0.24017 -0.529297,0.52929 v 0.5293 c 4e-6,0.28911 0.24019,0.52734 0.529297,0.52734 h 0.529297 c 0.289107,0 0.529293,-0.23823 0.529297,-0.52734 v -0.5293 c 8e-6,-0.28912 -0.240166,-0.52929 -0.529297,-0.52929 z"
         id="path1335" />
      <path
         style="color:#000000;fill:#66342d;stroke-width:0.745198;stroke-linecap:round;stroke-linejoin:round;-inkscape-stroke:none"
         d="m 42.144531,291.98828 a 0.2645835,0.2645835 0 0 0 -0.263672,0.26563 v 0.52929 a 0.2645835,0.2645835 0 0 0 0.263672,0.26367 0.2645835,0.2645835 0 0 0 0.263672,-0.26367 v -0.52929 a 0.2645835,0.2645835 0 0 0 -0.263672,-0.26563 z"
         id="path10032" />
      <path
         style="color:#000000;fill:#9a605c;stroke-width:0.745198;stroke-linecap:round;stroke-linejoin:round;-inkscape-stroke:none"
         d="M 32.884766,280.84375 A 0.26460996,0.26460996 0 0 0 32.625,281.05859 l -0.265625,1.3711 a 0.26460996,0.26460996 0 0 0 0.259766,0.31445 h 12.964843 a 0.26460996,0.26460996 0 0 0 0.259766,-0.31445 l -0.265625,-1.33985 a 0.26460996,0.26460996 0 0 0 -0.257813,-0.21289 z"
         id="path4174" />
      <path
         id="path12617"
         style="color:#000000;fill:#804f4d;fill-opacity:1;stroke-width:0.745198;stroke-linecap:round;stroke-linejoin:round;-inkscape-stroke:none"
         d="m 32.884815,280.84387 a 0.26460996,0.26460996 0 0 0 -0.259932,0.21498 l -0.06098,0.31471 12.227161,0.0326 a 0.26460996,0.26460996 0 0 1 0.257865,0.21291 l 0.223243,1.125 h 0.31161 a 0.26460996,0.26460996 0 0 0 0.259932,-0.3142 l -0.265618,-1.33997 a 0.26460996,0.26460996 0 0 0 -0.257865,-0.2129 z" />
      <path
         style="color:#000000;fill:#c00f0c;stroke-width:0.745198;stroke-linecap:round;stroke-linejoin:round;-inkscape-stroke:none"
         d="m 39.498047,283.25781 c -0.167054,-1.7e-4 -0.292469,0.15259 -0.259766,0.31641 l 0.525391,2.62109 v 0.76758 c 0,0.7275 0.594777,1.32227 1.322265,1.32227 0.72749,0 1.323995,-0.59477 1.322266,-1.32227 l -0.002,-0.82032 c 3.37e-4,-0.017 -0.531253,-2.67187 -0.531253,-2.67187 -0.02469,-0.12386 -0.133467,-0.21301 -0.259766,-0.21289 z"
         id="path3287"
         sodipodi:nodetypes="cccssscccc" />
      <path
         id="path50731"
         style="color:#000000;fill:#a60f0c;fill-opacity:1;stroke-width:0.745198;stroke-linecap:round;stroke-linejoin:round;-inkscape-stroke:none"
         d="m 39.497848,283.25768 c -0.167096,0 -0.29236,0.15296 -0.259416,0.31678 l 0.525033,2.62102 v 0.7674 c 0,0.43025 0.208677,0.81392 0.529167,1.05575 0.320876,-0.24184 0.531308,-0.62563 0.529683,-1.05575 l -0.0031,-0.82038 c -3.95e-4,-0.0172 -0.532267,-2.67195 -0.532267,-2.67195 -0.02469,-0.12393 -0.133564,-0.21311 -0.259932,-0.21291 z"
         sodipodi:nodetypes="cccscscccc" />
      <path
         id="path3965"
         style="color:#000000;fill:#a60f0c;fill-opacity:1;stroke-width:2.8165;stroke-linecap:round;stroke-linejoin:round;-inkscape-stroke:none"
         d="m 150.06641,22.064453 0.2207,1.099609 v 0.900391 h 9.99609 v -1.003906 a 1.0001006,1.0001006 0 0 0 -0.0156,-0.193359 l -0.16016,-0.802735 z"
         transform="matrix(0.26458334,0,0,0.26458334,0,280.06666)" />
      <path
         style="color:#000000;fill:#ececec;stroke-width:0.745198;stroke-linecap:round;stroke-linejoin:round;-inkscape-stroke:none"
         d="m 41.615234,283.25781 c -0.167054,-1.7e-4 -0.292468,0.15259 -0.259765,0.31641 l 0.52539,2.62109 v 0.76758 c 0,0.7275 0.594778,1.32227 1.322266,1.32227 0.72749,0 1.323995,-0.59477 1.322266,-1.32227 l -0.002,-0.82032 c 3.37e-4,-0.017 -0.531247,-2.67189 -0.531247,-2.67189 -0.02469,-0.12386 -0.133466,-0.21301 -0.259765,-0.21289 z"
         id="path3479"
         sodipodi:nodetypes="cccssscccc" />
      <path
         id="path57204"
         style="color:#000000;fill:#d9d9d9;fill-opacity:1;stroke-width:0.745198;stroke-linecap:round;stroke-linejoin:round;-inkscape-stroke:none"
         d="m 43.732251,283.25764 -0.529202,4e-5 c -0.167096,0 -0.29236,0.15296 -0.259416,0.31678 l 0.523484,2.62102 v 0.7674 c 0,0.43037 0.208491,0.81445 0.529682,1.05627 0.320633,-0.24182 0.528651,-0.6259 0.528651,-1.05627 z"
         sodipodi:nodetypes="ccccsccc" />
      <path
         id="path3970"
         style="color:#000000;fill:#d9d9d9;fill-opacity:1;stroke-width:2.8165;stroke-linecap:round;stroke-linejoin:round;-inkscape-stroke:none"
         d="m 158.06836,22.064453 c 0.20369,0.663453 0.2207,1.31646 0.2207,2 h 9.9961 c 0.0739,-0.708328 -0.0401,-1.319833 -0.17578,-2 z"
         transform="matrix(0.26458334,0,0,0.26458334,0,280.06666)"
         sodipodi:nodetypes="ccccc" />
      <path
         style="color:#000000;fill:#66342d;stroke-width:0.745198;stroke-linecap:round;stroke-linejoin:round;-inkscape-stroke:none"
         d="m 33.414062,293.57617 a 0.2645835,0.2645835 0 0 0 -0.265625,0.26563 0.2645835,0.2645835 0 0 0 0.265625,0.26367 h 6.878907 a 0.2645835,0.2645835 0 0 0 0.263672,-0.26367 0.2645835,0.2645835 0 0 0 -0.263672,-0.26563 z"
         id="path14695" />
      <path
         style="color:#000000;fill:#66342d;stroke-width:0.745198;stroke-linecap:round;stroke-linejoin:round;-inkscape-stroke:none"
         d="m 32.089844,294.63477 a 0.26460996,0.26460996 0 0 0 -0.263672,0.26562 v 1.05664 a 0.26460996,0.26460996 0 0 0 0.263672,0.26563 h 14.023437 a 0.26460996,0.26460996 0 0 0 0.263672,-0.26563 v -1.05664 a 0.26460996,0.26460996 0 0 0 -0.263672,-0.26562 z"
         id="path1723" />
      <path
         style="color:#000000;fill:#c00f0c;stroke-width:0.745198;stroke-linecap:round;stroke-linejoin:round;-inkscape-stroke:none"
         d="m 36.324219,283.25781 c -0.126299,-1.2e-4 -0.23508,0.089 -0.259766,0.21289 l -0.532247,2.67189 c -0.0036,0.0167 -0.003,0.82032 -0.003,0.82032 0,0.7275 0.596731,1.32227 1.324219,1.32227 0.727489,0 1.322265,-0.59477 1.322265,-1.32227 v -0.76758 l 0.523438,-2.62109 c 0.0327,-0.16382 -0.09271,-0.31658 -0.259766,-0.31641 z"
         id="path2903"
         sodipodi:nodetypes="cccssscccc" />
      <path
         id="path48735"
         style="color:#000000;fill:#a60f0c;fill-opacity:1;stroke-width:0.745198;stroke-linecap:round;stroke-linejoin:round;-inkscape-stroke:none"
         d="m 37.910348,283.25768 c -0.12559,7.8e-4 -0.23333,0.0897 -0.257866,0.21291 l -0.532267,2.67195 c -0.0037,0.0168 -0.0031,0.82038 -0.0031,0.82038 0,0.4305 0.20836,0.81446 0.529167,1.05627 0.320815,-0.2418 0.529683,-0.62576 0.529683,-1.05627 v -0.7674 l 0.522964,-2.62102 c 0.03294,-0.16382 -0.09232,-0.31678 -0.259416,-0.31678 z"
         sodipodi:nodetypes="cccscscccc" />
      <path
         id="path3955"
         style="color:#000000;fill:#a60f0c;fill-opacity:1;stroke-width:2.8165;stroke-linecap:round;stroke-linejoin:round;-inkscape-stroke:none"
         d="m 134.4668,22.064453 -0.16016,0.802735 a 1.0001006,1.0001006 0 0 0 -0.0234,0.193359 v 1.003906 h 10.00391 v -0.900391 l 0.21875,-1.099609 z"
         transform="matrix(0.26458334,0,0,0.26458334,0,280.06666)" />
      <path
         style="color:#000000;fill:#ececec;stroke-width:0.745198;stroke-linecap:round;stroke-linejoin:round;-inkscape-stroke:none"
         d="m 34.207031,283.25781 c -0.126299,-1.2e-4 -0.235079,0.089 -0.259765,0.21289 l -0.531247,2.67189 c -0.0029,0.0168 -0.002,0.82032 -0.002,0.82032 0,0.7275 0.594778,1.32227 1.322266,1.32227 0.727489,0 1.322266,-0.59477 1.322266,-1.32227 v -0.76758 l 0.52539,-2.62109 c 0.0327,-0.16382 -0.09271,-0.31658 -0.259765,-0.31641 z"
         id="path2711"
         sodipodi:nodetypes="cccssscccc" />
      <path
         id="path53290"
         style="color:#000000;fill:#d9d9d9;fill-opacity:1;stroke-width:0.745198;stroke-linecap:round;stroke-linejoin:round;-inkscape-stroke:none"
         d="m 34.207215,283.25768 c -0.126368,-2e-4 -0.235242,0.089 -0.259932,0.21291 l -0.531216,2.67195 c -0.003,0.0169 -0.002,0.82038 -0.002,0.82038 0,0.43024 0.208177,0.81392 0.528651,1.05575 0.321045,-0.24183 0.529683,-0.6255 0.529683,-1.05575 v -0.7674 l 0.523483,-2.62102 c 0.03294,-0.16382 -0.09232,-0.31678 -0.259416,-0.31678 z"
         sodipodi:nodetypes="cccscscccc" />
      <path
         id="path3950"
         style="color:#000000;fill:#d9d9d9;fill-opacity:1;stroke-width:2.8165;stroke-linecap:round;stroke-linejoin:round;-inkscape-stroke:none"
         d="m 126.46484,22.064453 c -0.20602,0.675528 -0.17578,1.30447 -0.17578,2 h 9.9961 c -0.0692,-0.687524 0.0866,-1.331977 0.2207,-2 z"
         transform="matrix(0.26458334,0,0,0.26458334,0,280.06666)"
         sodipodi:nodetypes="ccccc" />
      <path
         style="color:#000000;fill:#c00f0c;stroke-width:0.745198;stroke-linecap:round;stroke-linejoin:round;-inkscape-stroke:none"
         d="m 32.619141,283.25781 c -0.108272,-2.2e-4 -0.205754,0.0655 -0.246094,0.16602 l -1.066406,2.69533 c -0.01264,0.031 -0.0098,0.84377 -0.0098,0.84377 0,0.7275 0.594777,1.32227 1.322266,1.32227 0.727489,0 1.324218,-0.59477 1.324218,-1.32227 v -0.76758 l 0.523438,-2.62109 c 0.0327,-0.16382 -0.09271,-0.31658 -0.259766,-0.31641 z"
         id="path2519"
         sodipodi:nodetypes="cccssscccc" />
      <path
         id="path55130"
         style="color:#000000;fill:#a60f0c;fill-opacity:1;stroke-width:0.745198;stroke-linecap:round;stroke-linejoin:round;-inkscape-stroke:none"
         d="m 32.619199,283.25768 c -0.108324,-1.1e-4 -0.205776,0.0658 -0.24598,0.1664 l -1.066604,2.6952 c -0.01268,0.031 -0.0098,0.84363 -0.0098,0.84363 0,0.7275 0.594911,1.3224 1.322401,1.3224 0.09058,0 0.178954,-0.009 0.264584,-0.0269 -0.601703,-0.1234 -1.065231,-0.65865 -1.057818,-1.29553 l 0.0098,-0.84363 c 3e-4,-0.0335 1.066603,-2.6952 1.066603,-2.6952 0.0402,-0.10059 0.137656,-0.16651 0.24598,-0.1664 z"
         sodipodi:nodetypes="cccsscscccc" />
      <path
         style="color:#000000;fill:#c00f0c;stroke-width:0.745198;stroke-linecap:round;stroke-linejoin:round;-inkscape-stroke:none"
         d="m 43.732422,283.25781 c -0.167054,-1.7e-4 -0.292469,0.15259 -0.259766,0.31641 l 0.523438,2.62109 v 0.76758 c 0,0.7275 0.59673,1.32227 1.324218,1.32227 0.72749,0 1.330685,-0.59482 1.322266,-1.32227 l -0.0098,-0.84377 c -2.65e-4,-0.0335 -1.068359,-2.69533 -1.068359,-2.69533 -0.04007,-0.0998 -0.136582,-0.16544 -0.244141,-0.16602 z"
         id="path3671"
         sodipodi:nodetypes="cccssscccc" />
      <path
         id="path59278"
         style="color:#000000;fill:#a60f0c;fill-opacity:1;stroke-width:0.745198;stroke-linecap:round;stroke-linejoin:round;-inkscape-stroke:none"
         d="m 44.791065,283.25768 c 0.10763,4.4e-4 0.204272,0.066 0.24443,0.16588 0.350813,0.91078 0.761236,1.83379 1.077973,2.74457 v 0.79478 c 0,0.63692 -0.456115,1.17213 -1.057818,1.29553 0.08563,0.0175 0.174001,0.0269 0.264584,0.0269 0.72749,0 1.3224,-0.5949 1.3224,-1.3224 v -0.79478 c -0.316453,-0.91421 -0.714831,-1.83636 -1.077973,-2.74457 -0.04016,-0.0999 -0.1368,-0.16544 -0.24443,-0.16588 z"
         sodipodi:nodetypes="cccscsscccc" />
      <path
         style="color:#000000;fill:#ececec;stroke-width:0.745198;stroke-linecap:round;stroke-linejoin:round;-inkscape-stroke:none"
         d="m 38.439453,283.25781 c -0.125564,8e-4 -0.233272,0.0897 -0.257812,0.21289 l -0.532247,2.67189 c -0.0036,0.0167 -0.0029,0.82032 -0.0029,0.82032 0,0.7275 0.594778,1.32227 1.322266,1.32227 0.72749,0 1.326835,-0.59477 1.324219,-1.32227 l -0.0029,-0.82032 c -3.22e-4,-0.0171 -0.532247,-2.67189 -0.532247,-2.67189 -0.02469,-0.12386 -0.133466,-0.21301 -0.259765,-0.21289 z"
         id="path3095"
         sodipodi:nodetypes="cccssscccc" />
      <path
         style="color:#000000;fill:#66342d;stroke-width:0.745198;stroke-linecap:round;stroke-linejoin:round;-inkscape-stroke:none"
         d="m 32.089844,282.19922 a 0.26460996,0.26460996 0 0 0 -0.263672,0.26562 v 1.05664 a 0.26460996,0.26460996 0 0 0 0.263672,0.26563 h 14.023437 a 0.26460996,0.26460996 0 0 0 0.263672,-0.26563 v -1.05664 a 0.26460996,0.26460996 0 0 0 -0.263672,-0.26562 z"
         id="path3982" />
      <path
         id="path3945"
         style="color:#000000;fill:#a60f0c;fill-opacity:1;stroke-width:2.8165;stroke-linecap:round;stroke-linejoin:round;-inkscape-stroke:none"
         d="m 118.61133,22.064453 -0.25,0.626953 a 1.0001006,1.0001006 0 0 0 -0.0742,0.369141 v 1.003906 h 10.00195 v -0.900391 l 0.21875,-1.099609 z"
         transform="matrix(0.26458334,0,0,0.26458334,0,280.06666)" />
      <path
         id="path3960"
         style="color:#000000;fill:#d9d9d9;fill-opacity:1;stroke-width:2.8165;stroke-linecap:round;stroke-linejoin:round;-inkscape-stroke:none"
         d="m 142.46875,22.064453 c -0.20665,0.676367 -0.18359,1.303244 -0.18359,2 h 10.0039 c 0.0758,-0.708823 -0.0479,-1.319797 -0.18359,-2 z"
         transform="matrix(0.26458334,0,0,0.26458334,0,280.06666)"
         sodipodi:nodetypes="ccccc" />
      <path
         id="path13397"
         style="color:#000000;fill:#a60f0c;fill-opacity:1;stroke-width:2.8165;stroke-linecap:round;stroke-linejoin:round;-inkscape-stroke:none"
         d="m 166.06641,22.064453 c 0.202,0.663446 0.21875,1.316796 0.21875,2 h 10.00195 c 0.0972,-0.779066 -0.0503,-1.313459 -0.32422,-2 z"
         transform="matrix(0.26458334,0,0,0.26458334,0,280.06666)"
         sodipodi:nodetypes="ccccc" />
      <path
         id="path17439"
         style="color:#000000;fill:#522a25;fill-opacity:1;stroke-width:0.745198;stroke-linecap:round;stroke-linejoin:round;-inkscape-stroke:none"
         d="m 32.090033,282.19935 a 0.26460996,0.26460996 0 0 0 -0.264068,0.26561 v 0.26355 h 13.758334 a 0.26460996,0.26460996 0 0 1 0.263549,0.26562 v 0.79323 h 0.265618 a 0.26460996,0.26460996 0 0 0 0.263548,-0.26613 v -1.05627 a 0.26460996,0.26460996 0 0 0 -0.263548,-0.26561 z" />
      <path
         style="color:#000000;fill:#f9f9f9;stroke-width:0.745198;stroke-linecap:round;stroke-linejoin:round;-inkscape-stroke:none"
         d="m 34.783203,289.85156 a 0.26461046,0.26461046 0 0 0 -0.265625,0.26367 c 0,0.66485 -0.0032,1.17542 0.08789,1.63086 0.09109,0.45545 0.290697,0.85124 0.654297,1.21485 a 0.26461046,0.26461046 0 0 0 0.1875,0.0781 h 1.662109 a 0.26461046,0.26461046 0 0 0 0.1875,-0.0781 c 0.3636,-0.36361 0.563206,-0.7594 0.654297,-1.21485 0.09109,-0.45544 0.08789,-0.96601 0.08789,-1.63086 a 0.26461046,0.26461046 0 0 0 -0.263671,-0.26367 z"
         id="path2307" />
      <path
         id="path23888"
         style="color:#000000;fill:#ebebeb;fill-opacity:1;stroke-width:0.745198;stroke-linecap:round;stroke-linejoin:round;-inkscape-stroke:none"
         d="m 34.783406,289.85159 a 0.26461046,0.26461046 0 0 0 -0.265615,0.26355 c 0,0.0915 -1.35e-4,0.17966 0,0.26562 h 2.728516 a 0.26461046,0.26461046 0 0 1 0.263549,0.26355 c 0,0.66485 0.0032,1.17547 -0.08785,1.63091 -0.05473,0.27364 -0.148937,0.5257 -0.294039,0.76222 a 0.26461046,0.26461046 0 0 0 0.168981,-0.0765 c 0.363601,-0.36361 0.563134,-0.75946 0.654225,-1.21491 0.09109,-0.45544 0.08785,-0.96606 0.08785,-1.63091 a 0.26461046,0.26461046 0 0 0 -0.263548,-0.26355 z" />
      <path
         id="path31019"
         style="color:#000000;fill:#e5dace;fill-opacity:1;stroke-width:0.745198;stroke-linecap:round;stroke-linejoin:round;-inkscape-stroke:none"
         d="m 42.660447,289.8733 c -0.283062,0.007 -0.515739,0.24456 -0.515731,0.52916 h 0.529166 c 0.289132,0 0.529175,0.24005 0.529167,0.52917 v 0.5271 c 0.289108,0 0.529161,-0.23799 0.529167,-0.5271 v -0.52917 c 8e-6,-0.28912 -0.240036,-0.52916 -0.529167,-0.52916 z"
         sodipodi:nodetypes="ccscccccc" />
      <path
         id="path37861"
         style="color:#000000;fill:#522a25;fill-opacity:1;stroke-width:0.745198;stroke-linecap:round;stroke-linejoin:round;-inkscape-stroke:none"
         d="m 32.090033,294.63476 a 0.26460996,0.26460996 0 0 0 -0.264068,0.26562 v 0.26355 h 13.758334 a 0.26460996,0.26460996 0 0 1 0.263549,0.26562 v 0.79323 h 0.265618 a 0.26460996,0.26460996 0 0 0 0.263548,-0.26562 v -1.05678 a 0.26460996,0.26460996 0 0 0 -0.263548,-0.26562 z" />
    </g>
  </g>
</svg>
